User Type,Username,Date,Text
,sisse1972,2012-08-26T15:01Z,ΜΗΝ ΤΟ ΚΑΤΕΒΑΣ. ΚΑΗΚΕ Ο ΣΚΛΗΡΟς
,sisse1972,2012-08-29T20:05Z,ΘΑ ΔΩΣΟ 20 ΓΙΓΑ ΚΑΙ ΜΕΤΑ ΟΤΙ ΕΧΕΙ Ο ΚΑΘΕΝΑς ΑΣ ΔΩΣΕΙ
,sisse1972,2012-08-29T20:29Z,"Format                           : MPEG-4
Format_Commercial_IfAny          : XDCAM EX 25
Format profile                   : Base Media
Codec ID                         : isom
File size                        : 1.31 GiB
Duration                         : 1h 22mn
Overall bit rate                 : 2 280 Kbps
Movie name                       : HOODWINKED 2 TOO HOOD VS EVIL 2011
Tagged date                      : UTC 2012-05-15 18:23:49
hdvd                             : 1
stik                             : 1
akID                             : -1
sfID                             : 0

Video
ID                               : 1
Format                           : AVC
Format/Info                      : Advanced Video Codec
Format_Commercial_IfAny          : XDCAM EX 25
Format profile                   : High@L4.0
Format settings, CABAC           : Yes
Format settings, ReFrames        : 4 frames
Codec ID                         : avc1
Codec ID/Info                    : Advanced Video Coding
Duration                         : 1h 22mn
Bit rate mode                    : Variable
Bit rate                         : 2 000 Kbps
Maximum bit rate                 : 25.0 Mbps
Width                            : 1 280 pixels
Height                           : 720 pixels
Display aspect ratio             : 16:9
Frame rate mode                  : Constant
Frame rate                       : 23.976 fps
Color space                      : YUV
Chroma subsampling               : 4:2:0
Bit depth                        : 8 bits
Scan type                        : Progressive
Bits/(Pixel*Frame)               : 0.091
Stream size                      : 1.12 GiB (86%)
Writing library                  : x264 core 122 r2184 5c85e0a
Encoding settings                : cabac=1 / ref=4 / deblock=1:-1:-1 / analyse=0x3:0x133 / me=umh / subme=7 / psy=1 / psy_rd=1.00:0.00 / mixed_ref=1 / me_range=16 / chroma_me=1 / trellis=2 / 8x8dct=1 / cqm=0 / deadzone=21,11 / fast_pskip=1 / chroma_qp_offset=-2 / threads=6 / sliced_threads=0 / nr=0 / decimate=1 / interlaced=0 / bluray_compat=0 / constrained_intra=0 / bframes=2 / b_pyramid=0 / b_adapt=1 / b_bias=0 / direct=1 / weightb=1 / open_gop=0 / weightp=2 / keyint=240 / keyint_min=24 / scenecut=40 / intra_refresh=0 / rc_lookahead=40 / rc=2pass / mbtree=1 / bitrate=2000 / ratetol=1.0 / qcomp=0.60 / qpmin=0 / qpmax=69 / qpstep=4 / cplxblur=20.0 / qblur=0.5 / vbv_maxrate=25000 / vbv_bufsize=25000 / nal_hrd=vbr / ip_ratio=1.40 / aq=1:1.00
Material_Duration                : 4920040
Material_StreamSize              : 1204341020
Material_FrameCount              : 117963

Audio
ID                               : 2
Format                           : AAC
Format/Info                      : Advanced Audio Codec
Format profile                   : LC
Codec ID                         : 40
Duration                         : 1h 22mn
Bit rate mode                    : Variable
Bit rate                         : 317 Kbps
Maximum bit rate                 : 330 Kbps
Channel(s)                       : 6 channels
Channel positions                : Front: L C R, Side: L R, LFE
Sampling rate                    : 48.0 KHz
Compression mode                 : Lossy
Stream size                      : 186 MiB (14%)"
